<?xml version="1.0" encoding="utf-8"?>
<!-- Generator: Adobe Illustrator 23.0.0, SVG Export Plug-In . SVG Version: 6.00 Build 0)  -->
<svg version="1.1" id="Layer_1" xmlns="http://www.w3.org/2000/svg" xmlns:xlink="http://www.w3.org/1999/xlink" x="0px" y="0px"
	 width="576px" height="192.0793px" viewBox="0 0 576 192.0793" style="enable-background:new 0 0 576 192.0793;"
	 xml:space="preserve">
<style type="text/css">
	.st0{fill-rule:evenodd;clip-rule:evenodd;fill:#FFFFFF}
</style>
<title>LOGO/SMALL/White Copy</title>
<desc>Created with Sketch.</desc>
<g>
	<path class="st0" d="M174.01642,127.58473h-16.85284c-16.93329-0.03558-30.65491-13.74756-30.70239-30.68079v-1.18835
		c0.12988-16.84058,13.77509-30.44727,30.61597-30.5296h16.85284c6.98071,0,12.63965-5.65894,12.63965-12.63959V0.69148h-52.54633
		c-3.35223,0-6.5672,1.33167-8.93756,3.70209c-2.37036,2.37036-3.70203,5.58533-3.70203,8.93756v21.6062
		c-0.03564,16.93329-13.74762,30.65491-30.68085,30.70239h-1.18835c-16.93323-0.04749-30.6452-13.7691-30.68079-30.70239V0.62666H0
		V192.0793h58.83374v-33.90015c0.04742-16.92841,13.75244-30.64307,30.68079-30.70245h1.18835
		c16.92834,0.05933,30.63342,13.77405,30.68085,30.70245v21.2605c0,6.98065,5.65894,12.63965,12.63959,12.63965h52.63275v-51.85492
		C186.65607,133.24373,180.99713,127.58473,174.01642,127.58473z"/>
	<rect x="260.03076" y="0.62666" class="st0" width="55.59277" height="191.36621"/>
	<path class="st0" d="M522.00604,0.00002V108.5497L450.18707,5.40163c-2.36127-3.39319-6.23712-5.41193-10.37097-5.40161h-50.9259
		v191.99286h54.01556V83.42165l71.84064,103.14807c2.35895,3.39856,6.23395,5.42316,10.37097,5.42316H576V0.00002H522.00604z"/>
</g>
</svg>
