<?xml version="1.0" encoding="utf-8"?>
<!-- Generator: Adobe Illustrator 23.0.0, SVG Export Plug-In . SVG Version: 6.00 Build 0)  -->
<svg version="1.1" id="Layer_1" xmlns="http://www.w3.org/2000/svg" xmlns:xlink="http://www.w3.org/1999/xlink" x="0px" y="0px"
	 width="288px" height="96.03965px" viewBox="0 0 288 96.03965" style="enable-background:new 0 0 288 96.03965;"
	 xml:space="preserve">
<style type="text/css">
	.st0{fill-rule:evenodd;clip-rule:evenodd;fill:#F6BCD8}
</style>
<title>LOGO/SMALL/White Copy</title>
<desc>Created with Sketch.</desc>
<g>
	<path class="st0" d="M87.00824,63.7924h-8.42645c-8.46661-0.01782-15.32745-6.87378-15.3512-15.34045v-0.59412
		c0.06494-8.42035,6.88757-15.22369,15.30798-15.26483h8.42645c3.4903,0,6.31982-2.82947,6.31982-6.31982V0.34574H67.01166
		c-1.67609,0-3.28357,0.66583-4.46875,1.85101c-1.18524,1.18524-1.85107,2.79266-1.85107,4.46881v10.8031
		c-0.01776,8.46661-6.87378,15.32745-15.34039,15.3512h-0.59418c-8.46661-0.02374-15.32263-6.88458-15.34039-15.3512V0.31333H0
		v95.72632h29.41687V79.08958c0.02368-8.46417,6.87622-15.32153,15.34039-15.3512h0.59418
		c8.46417,0.02966,15.31671,6.88702,15.34039,15.3512v10.63025c0,3.49036,2.82953,6.31982,6.31982,6.31982h26.31641V70.11222
		C93.32806,66.62186,90.4986,63.7924,87.00824,63.7924z"/>
	<rect x="130.01538" y="0.31333" class="st0" width="27.79639" height="95.68311"/>
	<path class="st0" d="M261.00305,0.00004v54.27478L225.09351,2.70084c-1.1806-1.69666-3.11853-2.70599-5.18549-2.70081h-25.46289
		v95.9964h27.00775V41.71079l35.92035,51.57404c1.17944,1.69928,3.11694,2.71161,5.18549,2.71161H288V0.00004H261.00305z"/>
</g>
</svg>
