<?xml version="1.0" encoding="utf-8"?>
<!-- Generator: Adobe Illustrator 23.0.0, SVG Export Plug-In . SVG Version: 6.00 Build 0)  -->
<svg version="1.1" id="Layer_1" xmlns="http://www.w3.org/2000/svg" xmlns:xlink="http://www.w3.org/1999/xlink" x="0px" y="0px"
	 width="288px" height="288px" viewBox="0 0 288 288" style="enable-background:new 0 0 288 288;" xml:space="preserve">
<style type="text/css">
	.st0{fill-rule:evenodd;clip-rule:evenodd;fill:#6F41E8;}
	.st1{fill-rule:evenodd;clip-rule:evenodd;fill:#FFFFFF;}
</style>
<path class="st0" d="M284.4281,120.27916c-4.70065-15.29237-12.28256-28.47512-36.80725-52.80815l-27.90747-27.68884
	c-24.52478-24.3337-37.7666-31.81167-53.09523-36.39162c-15.32872-4.58062-30.98653-4.51961-46.27898,0.18102
	s-28.4752,12.28178-52.80832,36.80716l-27.7485,27.96714c-24.33379,24.5247-31.81176,37.76643-36.39238,53.09505
	c-4.57995,15.32864-4.51893,30.98711,0.1817,46.27888c4.70063,15.29305,12.28246,28.47513,36.80791,52.80882l27.9068,27.68817
	c24.52546,24.33368,37.7666,31.81232,53.09591,36.39294c15.32872,4.58063,30.98651,4.51895,46.27898-0.1817
	c15.29178-4.70062,28.47453-12.28244,52.80823-36.80782l27.74869-27.96646c24.33302-24.52538,31.81099-37.76711,36.39162-53.09573
	C289.1904,151.22942,289.12872,135.57162,284.4281,120.27916L284.4281,120.27916z"/>
<title>Test 3</title>
<desc>Created with Sketch.</desc>
<path class="st1" d="M191.25955,118.76414c0,4.84277-3.91426,8.77047-8.74428,8.77047h-8.16714
	c-8.7785,0-15.89172,7.13538-15.89172,15.93661h-0.03085c0,8.80199,8.1604,15.93735,16.93889,15.93735h7.21718
	c4.79181,0,8.67793,3.89551,8.67793,8.69737v24.00386h-24.15944c-4.7925,0-8.67456-3.89626-8.67456-8.70143v-8.03497
	c0-8.79861-7.40825-16.229-16.18675-16.229v-0.0321c-8.77917,0-15.60286,7.78693-15.60286,17.06084v7.30768
	c0,4.76427-3.85189,8.629-8.60619,8.629H96.57726V95.02844h21.62752c4.65499,0,8.43116,3.78293,8.43116,8.45271v8.11678
	c0,8.80055,7.55843,16.37977,16.33693,16.37977c8.77782,0,15.45268-7.57922,15.45268-16.37977v-7.80241
	c0-4.84269,3.91359-8.76709,8.74361-8.76709h24.09039V118.76414z"/>
</svg>
