
<svg width="224px" height="231px" viewBox="0 0 224 231" version="1.1" xmlns="http://www.w3.org/2000/svg" xmlns:xlink="http://www.w3.org/1999/xlink">
    <defs>
        <linearGradient x1="50.0000022%" y1="99.9999957%" x2="50.0000022%" y2="4.34554449e-06%" id="linearGradient-1">
            <stop stop-color="#89394f" offset="1.031%"></stop>
            <stop stop-color="#f6bcd8" offset="100%"></stop>
        </linearGradient>
        <linearGradient x1="50%" y1="99.9999955%" x2="50%" y2="0%" id="linearGradient-2">
            <stop stop-color="#f6bcd8" offset="1.031%"></stop>
            <stop stop-color="#89394f" offset="100%"></stop>
        </linearGradient>
        <linearGradient x1="50.0000024%" y1="100%" x2="50.0000024%" y2="0%" id="linearGradient-3">
            <stop stop-color="#f6bcd8" offset="1.031%"></stop>
            <stop stop-color="#89394f" offset="100%"></stop>
        </linearGradient>
        <linearGradient x1="50.0000051%" y1="99.9999951%" x2="50.0000051%" y2="0%" id="linearGradient-4">
            <stop stop-color="#89394f" offset="1.031%"></stop>
            <stop stop-color="#f6bcd8" offset="97.938%"></stop>
        </linearGradient>
    </defs>
    <g id="Page-1" stroke="none" stroke-width="1" fill="none" fill-rule="evenodd">
        <g id="kin-coin-large-gold" fill-rule="nonzero">
            <path d="M154.58627,230.58777 C142.52057,230.58777 132.7041,220.77133 132.7041,208.7056 L132.7041,181.79053 C132.7041,168.41925 121.82602,157.54114 108.45471,157.54114 C95.0834,157.54114 84.20532,168.41925 84.20532,181.79053 L84.20532,221.43708 C84.20532,226.48249 80.10046,230.58778 75.05462,230.58778 L9.56715,230.58778 C4.5213,230.58778 0.41644,226.48249 0.41644,221.43708 L0.41644,9.61775 C0.41644,4.5719 4.5213,0.46702 9.56715,0.46702 L72.78659,0.46702 C77.83246,0.46702 81.93732,4.57189 81.93732,9.61775 L81.93732,44.45032 C81.93732,58.89621 93.69025,70.64914 108.13614,70.64914 C122.58203,70.64914 134.33496,58.89621 134.33496,44.45032 L134.33496,21.3546 C134.33496,9.83713 143.7055,0.46703 155.22253,0.46703 L214.22497,0.46703 C219.27038,0.46703 223.37567,4.5719 223.37567,9.61776 L223.37567,66.65064 C223.37567,78.85932 213.44305,88.79151 201.23434,88.79151 L181.89901,88.79151 C168.63763,88.79151 157.8489,99.58024 157.8489,112.84162 C157.8489,126.10346 168.63763,136.89219 181.89901,136.89219 L202.48809,136.89219 C214.00512,136.89219 223.37566,146.26273 223.37566,157.77976 L223.37566,221.43708 C223.37566,226.48249 219.27037,230.58778 214.22496,230.58778 L154.58627,230.58778 L154.58627,230.58777 Z" id="Shape" fill="url(#linearGradient-1)"></path>
            <path d="M154.58627,226.01242 C145.04327,226.01242 137.27945,218.24863 137.27945,208.7056 L137.27945,181.79053 C137.27945,165.89655 124.34872,152.96579 108.45471,152.96579 C92.56073,152.96579 79.62997,165.89655 79.62997,181.79053 L79.62997,221.43708 C79.62997,223.96424 77.58132,226.01243 75.05462,226.01243 L9.56715,226.01243 C7.04043,226.01243 4.99179,223.96424 4.99179,221.43708 L4.99179,9.61775 C4.99179,7.09102 7.04044,5.04239 9.56715,5.04239 L72.78659,5.04239 C75.31332,5.04239 77.36197,7.09102 77.36197,9.61775 L77.36197,44.45032 C77.36197,61.41934 91.16712,75.22452 108.13614,75.22452 C125.10474,75.22452 138.91031,61.41934 138.91031,44.45032 L138.91031,21.3546 C138.91031,12.35983 146.22821,5.04239 155.22254,5.04239 L214.22498,5.04239 C216.75214,5.04239 218.80033,7.09102 218.80033,9.61775 L218.80033,66.65063 C218.80033,76.33618 210.92036,84.21615 201.23435,84.21615 L181.89902,84.21615 C166.11493,84.21615 153.27356,97.05752 153.27356,112.84161 C153.27356,128.62616 166.11493,141.46753 181.89902,141.46753 L202.4881,141.46753 C211.48245,141.46753 218.80033,148.78543 218.80033,157.77976 L218.80033,221.43708 C218.80033,223.96424 216.75214,226.01243 214.22498,226.01243 L154.58627,226.01243 L154.58627,226.01242 Z" id="Shape" fill="url(#linearGradient-2)"></path>
            <path d="M154.58627,221.43707 C147.56598,221.43707 141.85482,215.72592 141.85482,208.70559 L141.85482,181.79052 C141.85482,163.37383 126.87142,148.39043 108.4547,148.39043 C90.03801,148.39043 75.05461,163.37383 75.05461,181.79052 L75.05461,221.43707 L9.56714,221.43707 L9.56714,9.61775 L72.78658,9.61775 L72.78658,44.45032 C72.78658,63.94205 88.6444,79.79987 108.13613,79.79987 C127.62832,79.79987 143.48568,63.94205 143.48568,44.45032 L143.48568,21.3546 C143.48568,14.88298 148.75091,9.61775 155.22253,9.61775 L214.22497,9.61775 L214.22497,66.65063 C214.22497,73.81347 208.39764,79.6408 201.23434,79.6408 L181.89901,79.6408 C163.59222,79.6408 148.69817,94.53439 148.69817,112.84161 C148.69817,131.14886 163.59221,146.04287 181.89901,146.04287 L202.48809,146.04287 C208.95974,146.04287 214.22497,151.30813 214.22497,157.77975 L214.22497,221.43707 L154.58627,221.43707 L154.58627,221.43707 Z" id="Shape" fill="url(#linearGradient-3)"></path>
            <path d="M14.1425,14.19318 L68.21127,14.19318 L68.21127,44.45024 C68.21127,66.50018 86.08627,84.37515 108.1362,84.37515 L108.13626,84.37515 C130.18619,84.37515 148.06119,66.50018 148.06119,44.45024 L148.06119,21.3546 C148.06119,17.39946 151.26746,14.19318 155.22263,14.19318 L209.64948,14.19318 L209.64948,66.65064 C209.64948,71.29795 205.88208,75.06531 201.23478,75.06531 L181.8989,75.06531 C161.03553,75.06531 144.12241,91.97843 144.12241,112.8418 L144.12241,112.84186 C144.12241,133.70526 161.03553,150.61835 181.8989,150.61835 L202.48804,150.61835 C206.44318,150.61835 209.64948,153.82465 209.64948,157.77979 L209.64948,216.86158 L154.58606,216.86158 C150.08157,216.86158 146.42996,213.20997 146.42996,208.70548 L146.42996,181.79044 C146.42996,160.81717 129.42779,143.81501 108.45456,143.81501 L108.4545,143.81501 C87.48123,143.81501 70.47907,160.81718 70.47907,181.79044 L70.47907,216.86158 L14.1425,216.86158 L14.1425,14.19318 Z" id="Shape" fill="url(#linearGradient-4)"></path>
        </g>
    </g>
</svg>
