<?xml version="1.0" encoding="utf-8"?>
<!-- Generator: Adobe Illustrator 23.0.0, SVG Export Plug-In . SVG Version: 6.00 Build 0)  -->
<svg version="1.1" id="Layer_1" xmlns="http://www.w3.org/2000/svg" xmlns:xlink="http://www.w3.org/1999/xlink" x="0px" y="0px"
	 width="144px" height="48.01982px" viewBox="0 0 144 48.01982" style="enable-background:new 0 0 144 48.01982;"
	 xml:space="preserve">
<style type="text/css">
	.st0{fill-rule:evenodd;clip-rule:evenodd;fill:#000000;}
	.st1{fill:#FFFFFF;}
</style>
<title>LOGO/SMALL/White Copy</title>
<desc>Created with Sketch.</desc>
<g id="Page-1">
	<g>
		<g id="Kin_logo_RGB-04-Copy">
			<path id="Path" class="st0" d="M31.61529,23.9289v0.29708c0.01188,4.23331,3.44229,7.6613,7.67561,7.67021h4.21321
				c1.74517,0,3.15991,1.41474,3.15991,3.15991v12.96373H33.50583c-1.74517,0-3.15991-1.41474-3.15991-3.15991v-5.31513
				c-0.01185-4.23209-3.43812-7.66077-7.6702-7.67561h-0.29709c-4.23209,0.01483-7.65835,3.44351-7.67021,7.67561v8.47504H0V0.15666
				h14.70843v8.57767c0.0089,4.23332,3.43689,7.66372,7.67021,7.67561h0.29709c4.23331-0.01188,7.6613-3.44229,7.6702-7.67561
				V3.33278c0-0.83806,0.33292-1.64179,0.92552-2.23439s1.39633-0.92552,2.23439-0.92552h13.13658V13.1366
				c0,1.74517-1.41474,3.15991-3.15991,3.15991h-4.21321C35.05906,16.31708,31.64776,19.71875,31.61529,23.9289L31.61529,23.9289z"
				/>
			<polygon class="st1" points="78.90588,0.15666 78.90588,47.99822 65.00769,47.99822 65.00769,0.15666 			"/>
			<path class="st0" d="M144,0.00001v47.99821h-12.72066c-1.03426,0-2.00301-0.50616-2.59274-1.35579l-17.96017-25.78701v27.14281
				H97.22255V0.00001h12.73147c1.03347-0.00258,2.00243,0.50209,2.59274,1.3504l17.95475,25.78701V0.00001H144z"/>
		</g>
	</g>
</g>
</svg>
