<?xml version="1.0" encoding="utf-8"?>
<!-- Generator: Adobe Illustrator 23.0.0, SVG Export Plug-In . SVG Version: 6.00 Build 0)  -->
<svg version="1.1" id="Layer_1" xmlns="http://www.w3.org/2000/svg" xmlns:xlink="http://www.w3.org/1999/xlink" x="0px" y="0px"
	 width="576px" height="192.0793px" viewBox="0 0 576 192.0793" style="enable-background:new 0 0 576 192.0793;"
	 xml:space="preserve">
<style type="text/css">
	.st0{fill-rule:evenodd;clip-rule:evenodd;fill:#6F41E8;}
	.st1{fill:#FFFFFF;}
</style>
<title>LOGO/SMALL/White Copy</title>
<desc>Created with Sketch.</desc>
<g id="Page-1">
	<g>
		<g id="Kin_logo_RGB-04-Copy">
			<path id="Path" class="st0" d="M126.46115,95.7156v1.18834c0.04753,16.93325,13.76915,30.64522,30.70244,30.68082h16.85284
				c6.98068,0,12.63963,5.65895,12.63963,12.63963v51.8549h-52.63274c-6.98067,0-12.63963-5.65897-12.63963-12.63963v-21.26051
				c-0.04741-16.92838-13.75248-30.6431-30.68082-30.70242h-1.18835c-16.92834,0.05933-30.6334,13.77405-30.68082,30.70242v33.90015
				H0V0.62666h58.83371v34.31067c0.03561,16.93328,13.74757,30.6549,30.68082,30.70242h1.18835
				c16.93325-0.04752,30.64521-13.76914,30.68082-30.70242V13.33111c0-3.35224,1.33167-6.56718,3.70206-8.93757
				s5.58532-3.70206,8.93757-3.70206h52.54631v51.85491c0,6.98067-5.65897,12.63963-12.63965,12.63963h-16.85284
				C140.23625,65.26831,126.59104,78.875,126.46115,95.7156L126.46115,95.7156z"/>
			<polygon class="st1" points="315.62354,0.62666 315.62354,191.99289 260.03076,191.99289 260.03076,0.62666 			"/>
			<path class="st0" d="M576,0.00004v191.99284h-50.88263c-4.13702,0-8.01202-2.02463-10.37097-5.42317L442.90573,83.42166
				v108.57123H388.8902V0.00004h50.92587c4.13388-0.01031,8.00974,2.00837,10.37097,5.40159l71.819,103.14805V0.00004H576z"/>
		</g>
	</g>
</g>
</svg>
