<?xml version="1.0" encoding="utf-8"?>
<!-- Generator: Adobe Illustrator 23.0.0, SVG Export Plug-In . SVG Version: 6.00 Build 0)  -->
<svg version="1.1" id="Layer_1" xmlns="http://www.w3.org/2000/svg" xmlns:xlink="http://www.w3.org/1999/xlink" x="0px" y="0px"
	 width="288px" height="96.03965px" viewBox="0 0 288 96.03965" style="enable-background:new 0 0 288 96.03965;"
	 xml:space="preserve">
<style type="text/css">
	.st0{fill-rule:evenodd;clip-rule:evenodd;fill:#FFFFFF;}
	.st1{fill:#FFFFFF;}
</style>
<title>LOGO/SMALL/White Copy</title>
<desc>Created with Sketch.</desc>
<g id="Page-1">
	<g>
		<g id="Kin_logo_RGB-04-Copy">
			<path id="Path" class="st0" d="M63.23058,47.8578v0.59417c0.02377,8.46663,6.88457,15.32261,15.35122,15.34041h8.42642
				c3.49034,0,6.31982,2.82948,6.31982,6.31982v25.92745H67.01167c-3.49034,0-6.31982-2.82948-6.31982-6.31982V79.08958
				c-0.0237-8.46419-6.87624-15.32155-15.34041-15.35121h-0.59417c-8.46417,0.02966-15.3167,6.88702-15.34041,15.35121v16.95007H0
				V0.31333h29.41686v17.15533c0.0178,8.46664,6.87379,15.32745,15.34041,15.35121h0.59417
				c8.46663-0.02376,15.32261-6.88457,15.34041-15.35121V6.66556c0-1.67612,0.66584-3.28359,1.85103-4.46879
				s2.79266-1.85103,4.46878-1.85103h26.27316v25.92745c0,3.49034-2.82948,6.31982-6.31982,6.31982h-8.42642
				C70.11813,32.63416,63.29552,39.4375,63.23058,47.8578L63.23058,47.8578z"/>
			<polygon class="st1" points="157.81177,0.31333 157.81177,95.99644 130.01538,95.99644 130.01538,0.31333 			"/>
			<path class="st0" d="M288,0.00002v95.99642h-25.44131c-2.06851,0-4.00601-1.01231-5.18549-2.71159l-35.92033-51.57403v54.28561
				H194.4451V0.00002h25.46294c2.06694-0.00515,4.00487,1.00419,5.18549,2.7008l35.9095,51.57402V0.00002H288z"/>
		</g>
	</g>
</g>
</svg>
