<?xml version="1.0" encoding="utf-8"?>
<!-- Generator: Adobe Illustrator 23.0.0, SVG Export Plug-In . SVG Version: 6.00 Build 0)  -->
<svg version="1.1" id="Layer_1" xmlns="http://www.w3.org/2000/svg" xmlns:xlink="http://www.w3.org/1999/xlink" x="0px" y="0px"
	 width="239.42574px" height="239.49326px" viewBox="0 0 239.42574 239.49326"
	 style="enable-background:new 0 0 239.42574 239.49326;" xml:space="preserve">
<style type="text/css">
	.st0{fill:url(#SVGID_1_);}
	.st1{fill:url(#SVGID_2_);}
	.st2{fill:url(#SVGID_3_);}
	.st3{fill:url(#SVGID_4_);}
	.st4{fill:#888;}
	.st5{fill:url(#SVGID_5_);}
	.st6{fill:url(#SVGID_6_);}
	.st7{fill:url(#SVGID_7_);}
	.st8{fill:url(#SVGID_8_);}
	.st9{fill:url(#SVGID_9_);}
	.st10{fill:url(#SVGID_10_);}
	.st11{fill:url(#SVGID_11_);}
</style>
<linearGradient id="SVGID_1_" gradientUnits="userSpaceOnUse" x1="119.71287" y1="239.49326" x2="119.71287" y2="-9.094947e-13">
	<stop  offset="0" style="stop-color:#555"/>
	<stop  offset="1" style="stop-color:#222"/>
</linearGradient>
<path class="st0" d="M119.71873,239.49326c-22.53384,0-43.71887-8.7753-59.6528-24.70889l-35.38468-35.38435
	C8.76525,163.48351,0,142.29848,0,119.74671c0-22.55193,8.76542-43.73714,24.68142-59.65297l35.38435-35.38451
	C75.99936,8.7753,97.18456,0,119.71873,0c22.53333,0,43.7187,8.77514,59.65331,24.7089l35.38467,35.38485
	c32.89182,32.89214,32.89215,86.41279,0.00034,119.30627l-35.38501,35.38435
	C163.43777,230.71796,142.25273,239.49326,119.71873,239.49326z"/>
<linearGradient id="SVGID_2_" gradientUnits="userSpaceOnUse" x1="119.71377" y1="235.7191" x2="119.71377" y2="3.77415">
	<stop  offset="0" style="stop-color:#222"/>
	<stop  offset="1" style="stop-color:#555"/>
</linearGradient>
<path class="st1" d="M119.71873,235.7191c-21.52563,0-41.76311-8.38261-56.98402-23.60352l-35.38468-35.38435
	c-15.20316-15.20349-23.57588-35.44096-23.57588-56.98452c0-21.54389,8.37272-41.7812,23.57605-56.98419l35.38435-35.38451
	C77.95529,12.15676,98.1926,3.77415,119.71873,3.77415c21.52547,0,41.76294,8.38261,56.98453,23.60352l35.38467,35.38485
	c31.42055,31.42072,31.42055,82.54682,0.00034,113.96871l-35.38501,35.38435
	C161.48201,227.33649,141.24454,235.7191,119.71873,235.7191z"/>
<linearGradient id="SVGID_3_" gradientUnits="userSpaceOnUse" x1="119.71449" y1="232.63116" x2="119.71449" y2="6.86209">
	<stop  offset="0" style="stop-color:#555"/>
	<stop  offset="1" style="stop-color:#222"/>
</linearGradient>
<path class="st2" d="M119.71873,232.63116c-20.70087,0-40.16268-8.06129-54.80058-22.69919l-35.38468-35.38435
	c-14.61981-14.62013-22.67138-34.08194-22.67138-54.80091s8.05157-40.18094,22.67155-54.80075l35.38435-35.38451
	c14.63757-14.6379,34.09954-22.69936,54.80075-22.69936c20.70087,0,40.16267,8.06145,54.80092,22.69919l35.38467,35.38468
	c30.21667,30.217,30.21667,79.384,0.00034,109.60166l-35.38501,35.38435
	C159.88174,224.56987,140.4196,232.63116,119.71873,232.63116z"/>
<linearGradient id="SVGID_4_" gradientUnits="userSpaceOnUse" x1="119.71739" y1="220.27939" x2="119.71739" y2="19.21386">
	<stop  offset="0" style="stop-color:#222"/>
	<stop  offset="1" style="stop-color:#111"/>
</linearGradient>
<path class="st3" d="M119.71873,220.27939c-17.40167,0-33.76163-6.77664-46.06666-19.08118l-35.38451-35.38434
	c-12.28693-12.28743-19.0537-28.64757-19.0537-46.06716c0-17.41977,6.76677-33.77989,19.0537-46.06666l35.38451-35.38468
	c12.30469-12.30486,28.66482-19.08151,46.06666-19.08151c17.4015,0,33.76163,6.77665,46.06682,19.08151l35.38503,35.38468
	c25.40047,25.40097,25.40047,66.73201,0,92.13348l-35.38469,35.38467C153.4807,213.50275,137.12024,220.27939,119.71873,220.27939z"
	/>
<path class="st4" d="M119.71873,217.87766c-16.76003,0-32.51704-6.52669-44.36839-18.37787l-35.38451-35.38435
	c-11.83326-11.83342-18.35023-27.59044-18.35023-44.36872s6.51698-32.5353,18.35023-44.36839l35.38451-35.38468
	c11.85101-11.85118,27.60803-18.37805,44.36839-18.37805c16.76019,0,32.51721,6.52686,44.36873,18.37805l35.38467,35.38468
	c24.46431,24.46464,24.46431,64.27181,0,88.73711l-35.38467,35.38435C152.23595,211.35097,136.47859,217.87766,119.71873,217.87766z
	"/>
<linearGradient id="SVGID_5_" gradientUnits="userSpaceOnUse" x1="119.71871" y1="214.78972" x2="119.71871" y2="24.70354">
	<stop  offset="0" style="stop-color:#333"/>
	<stop  offset="1" style="stop-color:#666"/>
</linearGradient>
<path class="st5" d="M119.71873,214.78972c-15.93544,0-30.91695-6.2057-42.18495-17.47354l-35.38451-35.38435
	c-23.26092-23.26108-23.26092-61.10931,0-84.37006l35.38451-35.38451c11.26801-11.26817,26.24951-17.47371,42.18495-17.47371
	c15.93561,0,30.91695,6.20554,42.18512,17.47371l35.38467,35.38451c23.26042,23.26075,23.26042,61.10899,0,84.37006
	l-35.38467,35.38435C150.63568,208.58401,135.65434,214.78972,119.71873,214.78972z"/>
<linearGradient id="SVGID_6_" gradientUnits="userSpaceOnUse" x1="119.71877" y1="211.7019" x2="119.71877" y2="27.79143">
	<stop  offset="0" style="stop-color:#555"/>
	<stop  offset="0.98969" style="stop-color:#222"/>
</linearGradient>
<path class="st6" d="M79.71725,195.13274L44.33271,159.7482c-22.09223-22.09224-22.09223-57.91083,0-80.00306l35.38453-35.38453
	c22.09223-22.09224,57.91082-22.09224,80.00306,0l35.38454,35.38453c22.09222,22.09223,22.09222,57.91082,0,80.00306
	l-35.38454,35.38454C137.62807,217.22496,101.80948,217.22496,79.71725,195.13274z"/>
<linearGradient id="SVGID_7_" gradientUnits="userSpaceOnUse" x1="119.71877" y1="202.88692" x2="119.71877" y2="36.60641">
	<stop  offset="0" style="stop-color:#222"/>
	<stop  offset="0.98969" style="stop-color:#555"/>
</linearGradient>
<path class="st7" d="M80.25428,186.54019l-27.32903-27.32903c-21.79564-21.79564-21.79564-57.13335,0-78.92899l27.32903-27.32903
	c21.79564-21.79564,57.13335-21.79564,78.92899,0l27.32903,27.32903c21.79564,21.79564,21.79564,57.13335,0,78.92899
	l-27.32903,27.32903C137.38763,208.33583,102.04992,208.33583,80.25428,186.54019z"/>
<linearGradient id="SVGID_8_" gradientUnits="userSpaceOnUse" x1="119.56963" y1="162.94807" x2="119.56963" y2="76.66463">
	<stop  offset="0.01031" style="stop-color:#89394f"/>
	<stop  offset="1" style="stop-color:#f6bcd8"/>
</linearGradient>
<path class="st8" d="M135.57626,162.94807c-4.52402,0-8.20469-3.68066-8.20469-8.20468v-10.09177
	c0-5.01355-4.07872-9.09229-9.09227-9.09229s-9.09228,4.07874-9.09228,9.09229v14.8654c0,1.89177-1.53911,3.43105-3.43105,3.43105
	H81.20155c-1.89193,0-3.43105-1.53928-3.43105-3.43105V80.09567c0-1.89194,1.53912-3.43105,3.43105-3.43105h23.70405
	c1.89193,0,3.43105,1.53911,3.43105,3.43105V93.1561c0,5.41647,4.40675,9.82322,9.82321,9.82322s9.82321-4.40675,9.82321-9.82322
	v-8.65971c0-4.31846,3.51347-7.83176,7.83177-7.83176h22.12288c1.89177,0,3.43105,1.53911,3.43105,3.43105v21.3844
	c0,4.57764-3.72423,8.3017-8.30186,8.3017h-7.24976c-4.97234,0-9.01756,4.04521-9.01756,9.01755
	c0,4.97251,4.04523,9.01772,9.01756,9.01772h7.71985c4.3183,0,7.83177,3.51348,7.83177,7.83176v23.86823
	c0,1.89177-1.53928,3.43105-3.43105,3.43105H135.57626z"/>
<linearGradient id="SVGID_9_" gradientUnits="userSpaceOnUse" x1="119.56963" y1="161.23256" x2="119.56963" y2="78.38015">
	<stop  offset="0.01031" style="stop-color:#f6bcd8"/>
	<stop  offset="1" style="stop-color:#89394f"/>
</linearGradient>
<path class="st9" d="M135.57626,161.23256c-3.57814,0-6.48917-2.91103-6.48917-6.48917v-10.09177
	c0-5.95944-4.84837-10.8078-10.80779-10.8078c-5.95943,0-10.8078,4.84836-10.8078,10.8078v14.8654
	c0,0.94756-0.76814,1.71553-1.71552,1.71553H81.20155c-0.94739,0-1.71552-0.76797-1.71552-1.71553V80.09567
	c0-0.94739,0.76814-1.71552,1.71552-1.71552h23.70405c0.94739,0,1.71552,0.76814,1.71552,1.71552V93.1561
	c0,6.36252,5.17622,11.53874,11.53873,11.53874c6.36235,0,11.53874-5.17622,11.53874-11.53874v-8.65971
	c0-3.37257,2.74384-6.11624,6.11624-6.11624h22.12288c0.94756,0,1.71552,0.76814,1.71552,1.71552v21.3844
	c0,3.63158-2.95457,6.58617-6.58633,6.58617h-7.24976c-5.91823,0-10.73308,4.81486-10.73308,10.73308
	c0,5.91839,4.81485,10.73325,10.73308,10.73325h7.71985c3.37242,0,6.11624,2.74384,6.11624,6.11624v23.86823
	c0,0.94756-0.76796,1.71553-1.71552,1.71553H135.57626z"/>
<linearGradient id="SVGID_10_" gradientUnits="userSpaceOnUse" x1="119.56963" y1="159.51703" x2="119.56963" y2="80.09567">
	<stop  offset="0.01031" style="stop-color:#f6bcd8"/>
	<stop  offset="1" style="stop-color:#89394f"/>
</linearGradient>
<path class="st10" d="M135.57626,159.51703c-2.63225,0-4.77364-2.14139-4.77364-4.77364v-10.09177
	c0-6.90532-5.61801-12.52333-12.52332-12.52333c-6.90532,0-12.52332,5.61801-12.52332,12.52333v14.8654H81.20155V80.09567h23.70405
	V93.1561c0,7.3084,5.94586,13.25426,13.25426,13.25426c7.30856,0,13.25426-5.94586,13.25426-13.25426v-8.65971
	c0-2.42653,1.9742-4.40072,4.40073-4.40072h22.12288v21.3844c0,2.6857-2.18495,4.87064-4.87082,4.87064h-7.24976
	c-6.86411,0-12.44861,5.58434-12.44861,12.4486c0,6.86427,5.5845,12.44878,12.44861,12.44878h7.71985
	c2.42653,0,4.40073,1.97418,4.40073,4.40071v23.86823H135.57626z"/>
<linearGradient id="SVGID_11_" gradientUnits="userSpaceOnUse" x1="119.5696" y1="157.80145" x2="119.5696" y2="81.81123">
	<stop  offset="0.01031" style="stop-color:#89394f"/>
	<stop  offset="0.97938" style="stop-color:#f6bcd8"/>
</linearGradient>
<path class="st11" d="M82.91707,81.81123h20.27301v11.34484c0,8.26759,6.70221,14.9698,14.9698,14.9698h0.00003
	c8.26759,0,14.9698-6.7022,14.9698-14.9698v-8.65968c0-1.48298,1.20218-2.68517,2.68517-2.68517h20.40726v19.66885
	c0,1.7425-1.41257,3.15508-3.15506,3.15508h-7.24997c-7.82269,0-14.16425,6.34155-14.16425,14.16424v0.00003
	c0,7.82269,6.34155,14.16424,14.16425,14.16424h7.71986c1.48299,0,2.68517,1.20219,2.68517,2.68517v22.15263h-20.64595
	c-1.68893,0-3.05811-1.36917-3.05811-3.05811v-10.09177c0-7.86389-6.37493-14.23883-14.23882-14.23883h-0.00003
	c-7.86388,0-14.23883,6.37494-14.23883,14.23883v13.14987H82.91707V81.81123z"/>
</svg>
