<?xml version="1.0" encoding="utf-8"?>
<!-- Generator: Adobe Illustrator 23.0.0, SVG Export Plug-In . SVG Version: 6.00 Build 0)  -->
<svg version="1.1" id="Layer_1" xmlns="http://www.w3.org/2000/svg" xmlns:xlink="http://www.w3.org/1999/xlink" x="0px" y="0px"
	 width="279.03723px" height="288px" viewBox="0 0 279.03723 288" style="enable-background:new 0 0 279.03723 288;"
	 xml:space="preserve">
<style type="text/css">
	.st0{fill:url(#SVGID_1_);}
	.st1{fill:url(#SVGID_2_);}
	.st2{fill:url(#SVGID_3_);}
	.st3{fill:url(#SVGID_4_);}
</style>
<linearGradient id="SVGID_1_" gradientUnits="userSpaceOnUse" x1="139.51862" y1="0.94521" x2="139.51862" y2="288.94519" gradientTransform="matrix(1 0 0 -1 0 288.94519)">
	<stop  offset="0.01031" style="stop-color:#6f41e8"/>
	<stop  offset="1" style="stop-color:#6f41e8"/>
</linearGradient>
<path class="st0" d="M192.94615,288c-15.10043,0-27.38591-12.28543-27.38591-27.38589v-33.68468
	c0-16.73438-13.61411-30.34853-30.34853-30.34853s-30.34852,13.61415-30.34852,30.34853v49.61833
	c0,6.31439-5.1373,11.45224-11.45225,11.45224H11.45227C5.1373,288,0,282.86215,0,276.54776V11.45229C0,5.13732,5.1373,0,11.45227,0
	h79.12019c6.31499,0,11.45229,5.13732,11.45229,11.45229v43.59354c0,18.07928,14.70899,32.78827,32.78827,32.78827
	s32.78827-14.70898,32.78827-32.78827V26.14115C167.60129,11.72684,179.32869,0,193.74245,0h73.84254
	c6.31442,0,11.45224,5.13732,11.45224,11.45229V82.8299c0,15.27937-12.43082,27.70968-27.71024,27.70968h-24.19849
	c-16.59685,0-30.09912,13.50227-30.09912,30.09912c0,16.59741,13.50227,30.09969,30.09912,30.09969h25.76758
	c14.41376,0,26.14114,11.7274,26.14114,26.14116v79.66821c0,6.31439-5.13782,11.45224-11.45224,11.45224H192.94615z"/>
<linearGradient id="SVGID_2_" gradientUnits="userSpaceOnUse" x1="139.51862" y1="6.67133" x2="139.51862" y2="283.21906" gradientTransform="matrix(1 0 0 -1 0 288.94519)">
	<stop  offset="0.01031" style="stop-color:#a890f2"/>
	<stop  offset="1" style="stop-color:#a890f2"/>
</linearGradient>
<path class="st1" d="M192.94615,282.27386c-11.94322,0-21.65979-9.71652-21.65979-21.65976v-33.68468
	c0-19.89159-16.18301-36.07465-36.07465-36.07465c-19.89159,0-36.07464,16.18306-36.07464,36.07465v49.61833
	c0,3.16278-2.56392,5.7261-5.72613,5.7261H11.45227c-3.16223,0-5.72614-2.56332-5.72614-5.7261V11.45229
	c0-3.16225,2.56391-5.72614,5.72614-5.72614h79.12019c3.16225,0,5.72617,2.56389,5.72617,5.72614v43.59354
	c0,21.23702,17.27737,38.51443,38.51439,38.51443c21.2365,0,38.51439-17.27741,38.51439-38.51443V26.14115
	c0-11.2571,9.15848-20.41501,20.41504-20.41501h73.84254c3.16278,0,5.72614,2.56389,5.72614,5.72614V82.8299
	c0,12.12163-9.86194,21.98355-21.98413,21.98355h-24.19849c-19.75406,0-35.82524,16.07119-35.82524,35.82525
	c0,19.75462,16.07118,35.82581,35.82524,35.82581h25.76758c11.25659,0,20.41504,9.15848,20.41504,20.41504v79.66821
	c0,3.16278-2.56335,5.7261-5.72614,5.7261H192.94615z"/>
<linearGradient id="SVGID_3_" gradientUnits="userSpaceOnUse" x1="139.51863" y1="12.39746" x2="139.51863" y2="277.49292" gradientTransform="matrix(1 0 0 -1 0 288.94519)">
	<stop  offset="0.01031" style="stop-color:#6f41e8"/>
	<stop  offset="1" style="stop-color:#6f41e8"/>
</linearGradient>
<path class="st2" d="M192.94615,276.54776c-8.78603,0-15.93362-7.14761-15.93362-15.93365v-33.68468
	c0-23.0488-18.75197-41.80077-41.80081-41.80077c-23.04879,0-41.80077,18.75197-41.80077,41.80077v49.61833H11.45227V11.45229
	h79.12019v43.59354c0,24.39423,19.84633,44.24056,44.24055,44.24056c24.39481,0,44.24055-19.84633,44.24055-44.24056V26.14115
	c0-8.09934,6.58952-14.68886,14.68887-14.68886h73.84254V82.8299c0,8.96442-7.293,16.25742-16.258,16.25742h-24.19849
	c-22.91125,0-41.55141,18.63957-41.55141,41.55138c0,22.91183,18.64015,41.55194,41.55141,41.55194h25.76758
	c8.0994,0,14.6889,6.58955,14.6889,14.6889v79.66821H192.94615z"/>
<linearGradient id="SVGID_4_" gradientUnits="userSpaceOnUse" x1="139.51854" y1="18.12377" x2="139.51854" y2="271.76669" gradientTransform="matrix(1 0 0 -1 0 288.94519)">
	<stop  offset="0.01031" style="stop-color:#6f41e8"/>
	<stop  offset="0.97938" style="stop-color:#6f41e8"/>
</linearGradient>
<path class="st3" d="M17.17839,17.17851h67.66798v37.86723c0,27.59587,22.37086,49.9667,49.96672,49.9667h0.00008
	c27.59586,0,49.96672-22.37083,49.96672-49.9667V26.14115c0-4.94992,4.0127-8.96264,8.96266-8.96264h68.11612v65.6514
	c0,5.81618-4.71497,10.53111-10.53114,10.53111h-24.19917c-26.11087,0-47.27791,21.16705-47.27791,47.27792v0.00008
	c0,26.1109,21.16704,47.27791,47.27791,47.27791h25.76765c4.94994,0,8.96266,4.01274,8.96266,8.96266v73.94186h-68.9128
	c-5.63744,0-10.20749-4.57007-10.20749-10.20749v-33.68465c0-26.2484-21.2785-47.52689-47.52686-47.52689h-0.00008
	c-26.2484,0-47.5269,21.27849-47.5269,47.52689v43.89214H17.17839V17.17851z"/>
</svg>
