<?xml version="1.0" encoding="utf-8"?>
<!-- Generator: Adobe Illustrator 23.0.0, SVG Export Plug-In . SVG Version: 6.00 Build 0)  -->
<svg version="1.1" id="Layer_1" xmlns="http://www.w3.org/2000/svg" xmlns:xlink="http://www.w3.org/1999/xlink" x="0px" y="0px"
	 width="382.64313px" height="382.75104px" viewBox="0 0 382.64313 382.75104"
	 style="enable-background:new 0 0 382.64313 382.75104;" xml:space="preserve">
<style type="text/css">
	.st0{fill:url(#SVGID_1_);}
	.st1{fill:url(#SVGID_2_);}
	.st2{fill:url(#SVGID_3_);}
	.st3{fill:url(#SVGID_4_);}
	.st4{fill:#888;}
	.st5{fill:url(#SVGID_5_);}
	.st6{fill:url(#SVGID_6_);}
	.st7{fill:url(#SVGID_7_);}
	.st8{fill:url(#SVGID_8_);}
	.st9{fill:url(#SVGID_9_);}
	.st10{fill:url(#SVGID_10_);}
	.st11{fill:url(#SVGID_11_);}
</style>
<linearGradient id="SVGID_1_" gradientUnits="userSpaceOnUse" x1="191.32156" y1="382.75104" x2="191.32156" y2="-9.094947e-13">
	<stop  offset="0" style="stop-color:#555"/>
	<stop  offset="1" style="stop-color:#222"/>
</linearGradient>
<path class="st0" d="M191.33093,382.75104c-36.01291,0-69.8702-14.02444-95.33533-39.48904l-56.55075-56.5502
	C14.00837,261.27451,0,227.41721,0,191.37566c0-36.04182,14.00863-69.8994,39.44512-95.33562l56.55021-56.55048
	C121.45992,14.02443,155.31749,0,191.33093,0c36.0121,0,69.86993,14.02416,95.33615,39.48903l56.55075,56.55101
	c52.56671,52.56726,52.56723,138.10236,0.00052,190.67175l-56.55127,56.5502
	C261.20142,368.72659,227.34412,382.75104,191.33093,382.75104z"/>
<linearGradient id="SVGID_2_" gradientUnits="userSpaceOnUse" x1="191.323" y1="376.7193" x2="191.323" y2="6.03174">
	<stop  offset="0" style="stop-color:#222"/>
	<stop  offset="1" style="stop-color:#555"/>
</linearGradient>
<path class="st1" d="M191.33093,376.7193c-34.40163,0-66.74456-13.39685-91.07018-37.72247l-56.55075-56.5502
	c-24.29723-24.29776-37.67827-56.6407-37.67827-91.07097c0-34.43082,13.38104-66.77349,37.67854-91.07045l56.55021-56.55048
	c24.32535-24.32615,56.66802-37.72299,91.07044-37.72299c34.40135,0,66.74429,13.39684,91.07098,37.72245l56.55075,56.55102
	c50.21539,50.21565,50.21539,131.92389,0.00052,182.14142l-56.55127,56.5502
	C258.07578,363.32245,225.73283,376.7193,191.33093,376.7193z"/>
<linearGradient id="SVGID_3_" gradientUnits="userSpaceOnUse" x1="191.32414" y1="371.78424" x2="191.32414" y2="10.96679">
	<stop  offset="0" style="stop-color:#555"/>
	<stop  offset="1" style="stop-color:#222"/>
</linearGradient>
<path class="st2" d="M191.33093,371.78424c-33.08351,0-64.18681-12.8833-87.58067-36.27716l-56.55075-56.55023
	c-23.36495-23.36548-36.23273-54.46877-36.23273-87.58119s12.86778-64.216,36.23299-87.58095L103.75,47.24423
	c23.39333-23.39386,54.49689-36.27744,87.58093-36.27744c33.08353,0,64.18681,12.88357,87.58121,36.27717l56.55075,56.55074
	c48.29138,48.29192,48.29138,126.86916,0.00052,175.16214l-56.55127,56.55023
	C255.51828,358.90094,224.41446,371.78424,191.33093,371.78424z"/>
<linearGradient id="SVGID_4_" gradientUnits="userSpaceOnUse" x1="191.3288" y1="352.04401" x2="191.3288" y2="30.70702">
	<stop  offset="0" style="stop-color:#222"/>
	<stop  offset="1" style="stop-color:#111"/>
</linearGradient>
<path class="st3" d="M191.33093,352.04401c-27.81084,0-53.95683-10.83023-73.62237-30.49496l-56.55048-56.55023
	c-19.63661-19.63741-30.45106-45.78368-30.45106-73.62315c0-27.83977,10.81445-53.98604,30.45106-73.62238l56.55048-56.55075
	c19.66499-19.66526,45.81127-30.49551,73.62237-30.49551c27.81058,0,53.95685,10.83025,73.62265,30.49551l56.55127,56.55075
	c40.59427,40.59508,40.59427,106.64912,0,147.24501l-56.55075,56.55075
	C245.28831,341.21378,219.14151,352.04401,191.33093,352.04401z"/>
<path class="st4" d="M191.33093,348.20563c-26.78537,0-51.96777-10.43076-70.90825-29.37097l-56.55048-56.55023
	C44.96064,243.3726,34.5454,218.19022,34.5454,191.37566s10.41524-51.99696,29.32681-70.90826l56.55048-56.55075
	c18.93994-18.94021,44.12234-29.37125,70.90825-29.37125c26.78564,0,51.96805,10.43104,70.90878,29.37125l56.55075,56.55075
	c39.09811,39.09866,39.09811,102.71731,0,141.81702l-56.55075,56.55023
	C243.29898,337.77487,218.11604,348.20563,191.33093,348.20563z"/>
<linearGradient id="SVGID_5_" gradientUnits="userSpaceOnUse" x1="191.3309" y1="343.27057" x2="191.3309" y2="39.48046">
	<stop  offset="0" style="stop-color:#333"/>
	<stop  offset="1" style="stop-color:#666"/>
</linearGradient>
<path class="st5" d="M191.33093,343.27057c-25.46754,0-49.41055-9.91779-67.41874-27.92569l-56.55048-56.55023
	c-37.17492-37.17517-37.17492-97.66309,0-134.83774l56.55048-56.55048c18.00819-18.00846,41.95119-27.92596,67.41874-27.92596
	c25.46782,0,49.41055,9.9175,67.41901,27.92596l56.55075,56.55048c37.1741,37.17465,37.1741,97.66257,0,134.83774
	l-56.55075,56.55023C240.74149,333.35278,216.79875,343.27057,191.33093,343.27057z"/>
<linearGradient id="SVGID_6_" gradientUnits="userSpaceOnUse" x1="191.33101" y1="338.33572" x2="191.33101" y2="44.41544">
	<stop  offset="0" style="stop-color:#555"/>
	<stop  offset="0.98969" style="stop-color:#222"/>
</linearGradient>
<path class="st6" d="M127.40175,311.85535l-56.55051-56.55051c-35.30716-35.30716-35.30716-92.55136,0-127.85852l56.55051-56.55051
	c35.30716-35.30715,92.55136-35.30715,127.85852,0l56.55052,56.55051c35.30713,35.30716,35.30713,92.55136,0,127.85852
	l-56.55052,56.55051C219.95311,347.16251,162.70891,347.16251,127.40175,311.85535z"/>
<linearGradient id="SVGID_7_" gradientUnits="userSpaceOnUse" x1="191.33101" y1="324.24786" x2="191.33101" y2="58.50328">
	<stop  offset="0" style="stop-color:#222"/>
	<stop  offset="0.98969" style="stop-color:#555"/>
</linearGradient>
<path class="st7" d="M128.26003,298.12302l-43.67646-43.67645c-34.83314-34.83315-34.83314-91.30882,0-126.14197l43.67646-43.67645
	c34.83315-34.83315,91.30882-34.83315,126.14197,0l43.67644,43.67645c34.83316,34.83315,34.83316,91.30882,0,126.14197
	l-43.67644,43.67645C219.56885,332.95618,163.09317,332.95618,128.26003,298.12302z"/>
<linearGradient id="SVGID_8_" gradientUnits="userSpaceOnUse" x1="191.09265" y1="260.41879" x2="191.09265" y2="122.52314">
	<stop  offset="0.01031" style="stop-color:#444"/>
	<stop  offset="1" style="stop-color:#333"/>
</linearGradient>
<path class="st8" d="M216.67398,260.41879c-7.23016,0-13.1125-5.88234-13.1125-13.11249v-16.12837
	c0-8.0125-6.51849-14.53099-14.53099-14.53099c-8.01251,0-14.53101,6.51849-14.53101,14.53099v23.75746
	c0,3.02338-2.45976,5.4834-5.4834,5.4834h-39.24217c-3.02363,0-5.4834-2.46002-5.4834-5.4834V128.00653
	c0-3.02363,2.45977-5.48339,5.4834-5.48339h37.8831c3.02364,0,5.4834,2.45976,5.4834,5.48339v20.87279
	c0,8.65643,7.04274,15.69917,15.69917,15.69917c8.65642,0,15.69916-7.04274,15.69916-15.69917v-13.83969
	c0-6.90163,5.61513-12.51649,12.51651-12.51649h35.35612c3.02336,0,5.4834,2.45976,5.4834,5.48339v34.17592
	c0,7.31584-5.95195,13.26752-13.26779,13.26752h-11.58635c-7.94664,0-14.41159,6.46495-14.41159,14.41159
	c0,7.94691,6.46495,14.41185,14.41159,14.41185h12.33765c6.90137,0,12.51649,5.61513,12.51649,12.51651v38.14548
	c0,3.02338-2.46004,5.4834-5.4834,5.4834H216.67398z"/>
<linearGradient id="SVGID_9_" gradientUnits="userSpaceOnUse" x1="191.09265" y1="257.67709" x2="191.09265" y2="125.26484">
	<stop  offset="0.01031" style="stop-color:#333"/>
	<stop  offset="1" style="stop-color:#444"/>
</linearGradient>
<path class="st9" d="M216.67398,257.67709c-5.71848,0-10.3708-4.65231-10.3708-10.37079v-16.12837
	c0-9.52419-7.7485-17.27269-17.27269-17.27269c-9.5242,0-17.27271,7.7485-17.27271,17.27269v23.75746
	c0,1.51437-1.22762,2.7417-2.7417,2.7417h-39.24217c-1.51408,0-2.7417-1.22733-2.7417-2.7417V128.00653
	c0-1.51409,1.22762-2.74169,2.7417-2.74169h37.8831c1.51408,0,2.7417,1.2276,2.7417,2.74169v20.87279
	c0,10.16838,8.27249,18.44087,18.44087,18.44087c10.16811,0,18.44086-8.27249,18.44086-18.44087v-13.83969
	c0-5.38995,4.38512-9.77479,9.77481-9.77479h35.35612c1.51436,0,2.7417,1.2276,2.7417,2.74169v34.17592
	c0,5.80389-4.72194,10.52582-10.52609,10.52582h-11.58635c-9.45833,0-17.15329,7.69496-17.15329,17.15329
	c0,9.45859,7.69496,17.15355,17.15329,17.15355h12.33765c5.38968,0,9.7748,4.38512,9.7748,9.77481v38.14548
	c0,1.51437-1.22734,2.7417-2.7417,2.7417H216.67398z"/>
<linearGradient id="SVGID_10_" gradientUnits="userSpaceOnUse" x1="191.09265" y1="254.93539" x2="191.09265" y2="128.00653">
	<stop  offset="0.01031" style="stop-color:#666"/>
	<stop  offset="1" style="stop-color:#777"/>
</linearGradient>
<path class="st10" d="M216.67398,254.93539c-4.2068,0-7.6291-3.4223-7.6291-7.62909v-16.12837
	c0-11.03587-8.97853-20.01439-20.01439-20.01439c-11.03587,0-20.0144,8.97852-20.0144,20.01439v23.75746h-39.24217V128.00653
	h37.8831v20.87279c0,11.68007,9.5025,21.18257,21.18257,21.18257c11.68033,0,21.18256-9.5025,21.18256-21.18257v-13.83969
	c0-3.87799,3.15511-7.0331,7.03311-7.0331h35.35612v34.17592c0,4.29221-3.49191,7.78412-7.78439,7.78412h-11.58635
	c-10.97002,0-19.89499,8.92471-19.89499,19.89499s8.92497,19.89525,19.89499,19.89525h12.33765
	c3.87801,0,7.0331,3.15511,7.0331,7.03311v38.14548H216.67398z"/>
<linearGradient id="SVGID_11_" gradientUnits="userSpaceOnUse" x1="191.09259" y1="252.1936" x2="191.09259" y2="130.74828">
	<stop  offset="0.01031" style="stop-color:#111"/>
	<stop  offset="0.97938" style="stop-color:#333"/>
</linearGradient>
<path class="st11" d="M132.51561,130.74828h32.39972v18.131c0,13.21301,10.71127,23.92429,23.92429,23.92429h0.00005
	c13.21301,0,23.92427-10.71127,23.92427-23.92429v-13.83965c0-2.37004,1.92131-4.29135,4.29137-4.29135h32.61429v31.43417
	c0,2.78481-2.25754,5.04234-5.04234,5.04234h-11.58669c-12.502,0-22.63687,10.13487-22.63687,22.63687v0.00005
	c0,12.502,10.13487,22.63687,22.63687,22.63687h12.33768c2.37004,0,4.29135,1.92131,4.29135,4.29135v35.40367h-32.99574
	c-2.69923,0-4.88737-2.18816-4.88737-4.88737v-16.12836c0-12.56784-10.18825-22.75607-22.75609-22.75607h-0.00005
	c-12.56783,0-22.75607,10.18823-22.75607,22.75607v21.01573h-33.75865V130.74828z"/>
</svg>
