<?xml version="1.0" encoding="utf-8"?>
<!-- Generator: Adobe Illustrator 23.0.0, SVG Export Plug-In . SVG Version: 6.00 Build 0)  -->
<svg version="1.1" id="Layer_1" xmlns="http://www.w3.org/2000/svg" xmlns:xlink="http://www.w3.org/1999/xlink" x="0px" y="0px"
	 width="558.07446px" height="576px" viewBox="0 0 558.07446 576" style="enable-background:new 0 0 558.07446 576;"
	 xml:space="preserve">
<style type="text/css">
	.st0{fill:url(#SVGID_1_);}
	.st1{fill:url(#SVGID_2_);}
	.st2{fill:url(#SVGID_3_);}
	.st3{fill:url(#SVGID_4_);}
</style>
<linearGradient id="SVGID_1_" gradientUnits="userSpaceOnUse" x1="279.03723" y1="0.94521" x2="279.03723" y2="576.94519" gradientTransform="matrix(1 0 0 -1 0 576.94519)">
	<stop  offset="0.01031" style="stop-color:#6f41e8"/>
	<stop  offset="1" style="stop-color:#6f41e8"/>
</linearGradient>
<path class="st0" d="M385.8923,576c-30.20087,0-54.77182-24.57086-54.77182-54.77179v-67.36935
	c0-33.46875-27.22821-60.69705-60.69705-60.69705s-60.69704,27.2283-60.69704,60.69705v99.23666
	c0,12.62878-10.2746,22.90448-22.9045,22.90448H22.90454C10.2746,576,0,565.7243,0,553.09552V22.90458
	C0,10.27464,10.2746,0,22.90454,0h158.24039c12.62997,0,22.90457,10.27464,22.90457,22.90458v87.18709
	c0,36.15856,29.41798,65.57653,65.57654,65.57653s65.57654-29.41797,65.57654-65.57653V52.2823
	C335.20258,23.45368,358.65738,0,387.48489,0h147.68509c12.62885,0,22.90448,10.27464,22.90448,22.90458v142.75523
	c0,30.55875-24.86163,55.41936-55.42047,55.41936h-48.39697c-33.1937,0-60.19824,27.00455-60.19824,60.19824
	c0,33.19482,27.00455,60.19937,60.19824,60.19937h51.53516c28.82751,0,52.28229,23.4548,52.28229,52.28232v159.33643
	c0,12.62878-10.27563,22.90448-22.90448,22.90448H385.8923z"/>
<linearGradient id="SVGID_2_" gradientUnits="userSpaceOnUse" x1="279.03723" y1="12.39746" x2="279.03723" y2="565.49292" gradientTransform="matrix(1 0 0 -1 0 576.94519)">
	<stop  offset="0.01031" style="stop-color:#a890f2"/>
	<stop  offset="1" style="stop-color:#a890f2"/>
</linearGradient>
<path class="st1" d="M385.8923,564.54773c-23.88644,0-43.31958-19.43304-43.31958-43.31952v-67.36935
	c0-39.78317-32.36603-72.14929-72.14929-72.14929c-39.78317,0-72.14928,32.36612-72.14928,72.14929v99.23666
	c0,6.32556-5.12784,11.45221-11.45226,11.45221H22.90454c-6.32446,0-11.45229-5.12665-11.45229-11.45221V22.90458
	c0-6.3245,5.12783-11.45229,11.45229-11.45229h158.24039c6.32449,0,11.45233,5.12779,11.45233,11.45229v87.18709
	c0,42.47404,34.55473,77.02886,77.02878,77.02886c42.47299,0,77.02878-34.55482,77.02878-77.02886V52.2823
	c0-22.5142,18.31696-40.83001,40.83008-40.83001h147.68509c6.32556,0,11.45227,5.12779,11.45227,11.45229v142.75523
	c0,24.24326-19.72388,43.9671-43.96826,43.9671h-48.39697c-39.50812,0-71.65048,32.14238-71.65048,71.6505
	c0,39.50925,32.14236,71.65161,71.65048,71.65161h51.53516c22.51318,0,40.83008,18.31696,40.83008,40.83008v159.33643
	c0,6.32556-5.12671,11.45221-11.45227,11.45221H385.8923z"/>
<linearGradient id="SVGID_3_" gradientUnits="userSpaceOnUse" x1="279.03726" y1="23.84971" x2="279.03726" y2="554.04065" gradientTransform="matrix(1 0 0 -1 0 576.94519)">
	<stop  offset="0.01031" style="stop-color:#6f41e8"/>
	<stop  offset="1" style="stop-color:#6f41e8"/>
</linearGradient>
<path class="st2" d="M385.8923,553.09552c-17.57205,0-31.86725-14.29523-31.86725-31.86731v-67.36935
	c0-46.0976-37.50394-83.60153-83.60162-83.60153c-46.09758,0-83.60153,37.50394-83.60153,83.60153v99.23666H22.90454V22.90458
	h158.24039v87.18709c0,48.78846,39.69266,88.48112,88.48111,88.48112c48.78961,0,88.48111-39.69266,88.48111-88.48112V52.2823
	c0-16.19868,13.17905-29.37773,29.37775-29.37773h147.68509v142.75523c0,17.92885-14.586,32.51485-32.51599,32.51485h-48.39697
	c-45.82251,0-83.10281,37.27914-83.10281,83.10275c0,45.82367,37.2803,83.10388,83.10281,83.10388h51.53516
	c16.19879,0,29.37781,13.17911,29.37781,29.37781v159.33643H385.8923z"/>
<linearGradient id="SVGID_4_" gradientUnits="userSpaceOnUse" x1="279.03708" y1="35.30234" x2="279.03708" y2="542.5882" gradientTransform="matrix(1 0 0 -1 0 576.94519)">
	<stop  offset="0.01031" style="stop-color:#6f41e8"/>
	<stop  offset="0.97938" style="stop-color:#6f41e8"/>
</linearGradient>
<path class="st3" d="M34.35679,34.35702h135.33597v75.73446c0,55.19174,44.74173,99.9334,99.93344,99.9334h0.00015
	c55.19171,0,99.93344-44.74165,99.93344-99.9334V52.2823c0-9.89985,8.02539-17.92529,17.92532-17.92529h136.23224v131.3028
	c0,11.63237-9.42993,21.06221-21.06229,21.06221h-48.39835c-52.22174,0-94.55582,42.33411-94.55582,94.55585v0.00015
	c0,52.2218,42.33408,94.55582,94.55582,94.55582h51.53531c9.89987,0,17.92532,8.02548,17.92532,17.92532v147.88373H385.89175
	c-11.27487,0-20.41498-9.14014-20.41498-20.41498v-67.36929c0-52.4968-42.55701-95.05377-95.05371-95.05377h-0.00015
	c-52.4968,0-95.0538,42.55698-95.0538,95.05377v87.78427H34.35679V34.35702z"/>
</svg>
