<?xml version="1.0" encoding="utf-8"?>
<!-- Generator: Adobe Illustrator 23.0.0, SVG Export Plug-In . SVG Version: 6.00 Build 0)  -->
<svg version="1.1" id="Layer_1" xmlns="http://www.w3.org/2000/svg" xmlns:xlink="http://www.w3.org/1999/xlink" x="0px" y="0px"
	 width="144px" height="144px" viewBox="0 0 144 144" style="enable-background:new 0 0 144 144;" xml:space="preserve">
<style type="text/css">
	.st0{fill-rule:evenodd;clip-rule:evenodd;fill:#6F41E8;}
</style>
<title>Test 3</title>
<desc>Created with Sketch.</desc>
<g>
	<path class="st0" d="M95.62978,59.38207c0,2.42139-1.95713,4.38523-4.37214,4.38523h-4.08357
		c-4.38925,0-7.94586,3.56768-7.94586,7.9683h-0.01543c0,4.40099,4.0802,7.96867,8.46944,7.96867h3.60859
		c2.3959,0,4.33897,1.94775,4.33897,4.34869V96.0549H83.55006c-2.39625,0-4.33728-1.94813-4.33728-4.35072V87.6867
		c0-4.39931-3.70412-8.1145-8.09338-8.1145v-0.01605c-4.38959,0-7.80143,3.89346-7.80143,8.53042v3.65384
		c0,2.38213-1.92595,4.3145-4.30309,4.3145H48.28863V47.51422h10.81376c2.3275,0,4.21558,1.89146,4.21558,4.22636v4.05839
		c0,4.40028,3.77921,8.18988,8.16846,8.18988c4.38891,0,7.72634-3.78961,7.72634-8.18988v-3.9012
		c0-2.42134,1.95679-4.38354,4.3718-4.38354h12.0452V59.38207z M142.21405,60.13958
		c-2.35033-7.64619-6.14128-14.23756-18.40363-26.40408l-13.95374-13.84442C97.5943,7.72423,90.97339,3.98525,83.30907,1.69527
		c-7.66436-2.29031-15.49326-2.2598-23.13949,0.09051s-14.2376,6.14089-26.40416,18.40358L19.89117,34.17293
		C7.72428,46.43528,3.98529,53.05614,1.69498,60.72046c-2.28997,7.66432-2.25947,15.49355,0.09085,23.13945
		c2.35031,7.64652,6.14123,14.23756,18.40396,26.40441l13.9534,13.84409c12.26273,12.16685,18.8833,15.90617,26.54795,18.19648
		c7.66436,2.29031,15.49326,2.25948,23.13949-0.09085c7.64589-2.35031,14.23727-6.14122,26.40411-18.40391l13.87434-13.98323
		c12.1665-12.26269,15.9055-18.88355,18.1958-26.54787C144.5952,75.61471,144.56436,67.78581,142.21405,60.13958L142.21405,60.13958
		z"/>
</g>
</svg>
