<?xml version="1.0" encoding="utf-8"?>
<svg version="1.1" id="Layer_1" xmlns="http://www.w3.org/2000/svg" xmlns:xlink="http://www.w3.org/1999/xlink" x="0px" y="0px"
	 width="638.55615px" height="638.73627px" viewBox="0 0 638.55615 638.73627"
	 style="enable-background:new 0 0 638.55615 638.73627;" xml:space="preserve">
<style type="text/css">
	.st0{fill:url(#SVGID_1_);}
	.st1{fill:url(#SVGID_2_);}
	.st2{fill:url(#SVGID_3_);}
	.st3{fill:url(#SVGID_4_);}
	.st4{fill:#888;}
	.st5{fill:url(#SVGID_5_);}
	.st6{fill:url(#SVGID_6_);}
	.st7{fill:url(#SVGID_7_);}
	.st8{fill:url(#SVGID_8_);}
	.st9{fill:url(#SVGID_9_);}
	.st10{fill:url(#SVGID_10_);}
	.st11{fill:url(#SVGID_11_);}
</style>
<linearGradient id="SVGID_1_" gradientUnits="userSpaceOnUse" x1="319.27808" y1="638.73627" x2="319.27808" y2="-9.094947e-13">
	<stop  offset="0" style="stop-color:#555"/>
	<stop  offset="1" style="stop-color:#222"/>
</linearGradient>
<path class="st0" d="M319.29373,638.73627c-60.09848,0-116.59966-23.40405-159.09595-65.89948L65.8257,478.46564
	C23.37721,436.01581,0,379.51462,0,319.36835C0,259.22162,23.37766,202.72,65.82615,160.27196l94.37119-94.37164
	C202.69275,23.40402,259.19437,0,319.29373,0c60.09711,0,116.59918,23.40357,159.09729,65.89942l94.37204,94.37254
	c87.72357,87.72441,87.72443,230.46568,0.00092,318.19366l-94.37296,94.37115
	C435.89383,615.33221,379.39264,638.73627,319.29373,638.73627z"/>
<linearGradient id="SVGID_2_" gradientUnits="userSpaceOnUse" x1="319.28049" y1="628.67047" x2="319.28049" y2="10.06578">
	<stop  offset="0" style="stop-color:#222"/>
	<stop  offset="1" style="stop-color:#555"/>
</linearGradient>
<path class="st1" d="M319.29373,628.67047c-57.40955,0-111.38356-22.35669-151.97823-62.95135L72.94342,471.3479
	c-40.54731-40.54819-62.87764-94.52219-62.87764-151.97955c0-57.45825,22.33033-111.43182,62.87808-151.97868l94.37119-94.37163
	c40.59422-40.59556,94.56779-62.95225,151.97868-62.95225c57.40909,0,111.38312,22.35669,151.97955,62.95136l94.3721,94.37252
	c83.79962,83.80006,83.79962,220.15504,0.00085,303.95825l-94.37296,94.37122
	C430.67773,606.31378,376.70374,628.67047,319.29373,628.67047z"/>
<linearGradient id="SVGID_3_" gradientUnits="userSpaceOnUse" x1="319.28238" y1="620.43481" x2="319.28238" y2="18.30142">
	<stop  offset="0" style="stop-color:#555"/>
	<stop  offset="1" style="stop-color:#222"/>
</linearGradient>
<path class="st2" d="M319.29373,620.43481c-55.2099,0-107.11517-21.49969-146.15494-60.53949l-94.37207-94.37115
	c-38.99151-38.9924-60.4653-90.89767-60.4653-146.15582s21.47379-107.16386,60.46574-146.15538l94.37119-94.37163
	c39.03886-39.03976,90.9446-60.53992,146.15538-60.53992c55.2099,0,107.11514,21.50015,146.15582,60.53947l94.37204,94.37208
	c80.58887,80.58972,80.58887,211.71968,0.00092,292.31122l-94.37296,94.37115
	C426.40979,598.93512,374.50363,620.43481,319.29373,620.43481z"/>
<linearGradient id="SVGID_4_" gradientUnits="userSpaceOnUse" x1="319.29016" y1="587.49225" x2="319.29016" y2="51.24399">
	<stop  offset="0" style="stop-color:#222"/>
	<stop  offset="1" style="stop-color:#111"/>
</linearGradient>
<path class="st3" d="M319.29373,587.49225c-46.41083,0-90.04337-18.07355-122.86127-50.89014l-94.37164-94.37115
	c-32.76965-32.771-50.81683-76.40399-50.81683-122.86261c0-46.45908,18.04719-90.09207,50.81683-122.86127l94.37164-94.37209
	c32.817-32.81746,76.44998-50.89101,122.86127-50.89101c46.41037,0,90.04337,18.07355,122.86169,50.89101l94.37302,94.37209
	c67.74384,67.74521,67.74384,177.97644,0,245.72299l-94.3721,94.37204C409.33798,569.4187,365.7041,587.49225,319.29373,587.49225z"
	/>
<path class="st4" d="M319.29373,581.08673c-44.69952,0-86.724-17.40686-118.33194-49.0144l-94.37164-94.37115
	c-31.55968-31.56012-48.94067-73.58459-48.94067-118.33282s17.38099-86.77271,48.94067-118.33194l94.37164-94.37208
	c31.60704-31.60749,73.6315-49.01484,118.33194-49.01484c44.69998,0,86.72443,17.40735,118.33282,49.01484l94.3721,94.37208
	c65.24707,65.24799,65.24707,171.41501,0,236.66476l-94.3721,94.37115C406.01816,563.67987,363.9928,581.08673,319.29373,581.08673z
	"/>
<linearGradient id="SVGID_5_" gradientUnits="userSpaceOnUse" x1="319.29367" y1="572.85114" x2="319.29367" y2="65.88512">
	<stop  offset="0" style="stop-color:#333"/>
	<stop  offset="1" style="stop-color:#666"/>
</linearGradient>
<path class="st5" d="M319.29373,572.85114c-42.50034,0-82.4565-16.55084-112.50864-46.60254l-94.37164-94.37119
	c-62.03763-62.03806-62.03763-162.98053,0-225.0177l94.37164-94.37164c30.05214-30.05258,70.0083-46.60295,112.50864-46.60295
	c42.50076,0,82.45648,16.55037,112.50906,46.60295l94.37207,94.37164c62.03632,62.03717,62.03632,162.97964,0,225.0177
	L431.8028,526.2486C401.75021,556.30029,361.79449,572.85114,319.29373,572.85114z"/>
<linearGradient id="SVGID_6_" gradientUnits="userSpaceOnUse" x1="319.29385" y1="564.61578" x2="319.29385" y2="74.12064">
	<stop  offset="0" style="stop-color:#555"/>
	<stop  offset="0.98969" style="stop-color:#222"/>
</linearGradient>
<path class="st6" d="M212.60847,520.42529l-94.3717-94.3717c-58.9207-58.92068-58.9207-154.45004,0-213.37073l94.3717-94.3717
	c58.9207-58.9207,154.45003-58.9207,213.37074,0l94.37167,94.3717c58.92072,58.92068,58.92072,154.45004,0,213.37073
	l-94.37167,94.3717C367.0585,579.34601,271.52917,579.34601,212.60847,520.42529z"/>
<linearGradient id="SVGID_7_" gradientUnits="userSpaceOnUse" x1="319.29385" y1="541.10596" x2="319.29385" y2="97.63048">
	<stop  offset="0" style="stop-color:#222"/>
	<stop  offset="0.98969" style="stop-color:#555"/>
</linearGradient>
<path class="st7" d="M214.04076,497.50873l-72.88741-72.88742c-58.12968-58.12967-58.12968-152.3765,0-210.50616l72.88741-72.88741
	c58.12968-58.12968,152.37651-58.12968,210.50618,0l72.88739,72.88741c58.1297,58.12967,58.1297,152.3765,0,210.50616
	l-72.88739,72.88742C366.41727,555.63837,272.17044,555.63837,214.04076,497.50873z"/>
<linearGradient id="SVGID_8_" gradientUnits="userSpaceOnUse" x1="318.89606" y1="434.58777" x2="318.89606" y2="204.46703">
	<stop  offset="0.01031" style="stop-color:#444"/>
	<stop  offset="1" style="stop-color:#333"/>
</linearGradient>
<path class="st8" d="M361.58627,434.58777c-12.0657,0-21.88217-9.81644-21.88217-21.88217v-26.91507
	c0-13.37128-10.87808-24.24939-24.24939-24.24939s-24.24939,10.87811-24.24939,24.24939v39.64655
	c0,5.04541-4.10486,9.1507-9.1507,9.1507h-65.48747c-5.04585,0-9.15071-4.10529-9.15071-9.1507V213.61775
	c0-5.04585,4.10486-9.15073,9.15071-9.15073h63.21944c5.04587,0,9.15073,4.10487,9.15073,9.15073v34.83257
	c0,14.44589,11.75293,26.19882,26.19882,26.19882s26.19882-11.75293,26.19882-26.19882V225.3546
	c0-11.51747,9.37054-20.88757,20.88757-20.88757h59.00244c5.04541,0,9.1507,4.10487,9.1507,9.15073v57.03288
	c0,12.20868-9.93262,22.14087-22.14133,22.14087h-19.33533c-13.26138,0-24.05011,10.78873-24.05011,24.05011
	c0,13.26184,10.78873,24.05057,24.05011,24.05057h20.58908c11.51703,0,20.88757,9.37054,20.88757,20.88757v63.65732
	c0,5.04541-4.10529,9.1507-9.1507,9.1507H361.58627z"/>
<linearGradient id="SVGID_9_" gradientUnits="userSpaceOnUse" x1="318.89606" y1="430.01242" x2="318.89606" y2="209.04239">
	<stop  offset="0.01031" style="stop-color:#333"/>
	<stop  offset="1" style="stop-color:#444"/>
</linearGradient>
<path class="st9" d="M361.58627,430.01242c-9.543,0-17.30682-7.76379-17.30682-17.30682v-26.91507
	c0-15.89398-12.93073-28.82474-28.82474-28.82474c-15.89398,0-28.82474,12.93076-28.82474,28.82474v39.64655
	c0,2.52716-2.04865,4.57535-4.57535,4.57535h-65.48747c-2.52672,0-4.57536-2.04819-4.57536-4.57535V213.61775
	c0-2.52673,2.04865-4.57536,4.57536-4.57536h63.21944c2.52673,0,4.57538,2.04863,4.57538,4.57536v34.83257
	c0,16.96902,13.80515,30.7742,30.77417,30.7742c16.9686,0,30.77417-13.80518,30.77417-30.7742V225.3546
	c0-8.99477,7.3179-16.31221,16.31223-16.31221h59.00244c2.52716,0,4.57535,2.04863,4.57535,4.57536v57.03288
	c0,9.68555-7.87997,17.56552-17.56598,17.56552h-19.33533c-15.78409,0-28.62546,12.84137-28.62546,28.62546
	c0,15.78455,12.84137,28.62592,28.62546,28.62592h20.58908c8.99435,0,16.31223,7.3179,16.31223,16.31223v63.65732
	c0,2.52716-2.04819,4.57535-4.57535,4.57535H361.58627z"/>
<linearGradient id="SVGID_10_" gradientUnits="userSpaceOnUse" x1="318.89606" y1="425.43707" x2="318.89606" y2="213.61775">
	<stop  offset="0.01031" style="stop-color:#666"/>
	<stop  offset="1" style="stop-color:#777"/>
</linearGradient>
<path class="st10" d="M361.58627,425.43707c-7.02029,0-12.73145-5.71115-12.73145-12.73148v-26.91507
	c0-18.41669-14.9834-33.40009-33.40012-33.40009c-18.41669,0-33.40009,14.9834-33.40009,33.40009v39.64655h-65.48747V213.61775
	h63.21944v34.83257c0,19.49173,15.85782,35.34955,35.34955,35.34955c19.49219,0,35.34955-15.85782,35.34955-35.34955V225.3546
	c0-6.47162,5.26523-11.73685,11.73685-11.73685h59.00244v57.03288c0,7.16284-5.82733,12.99017-12.99063,12.99017h-19.33533
	c-18.30679,0-33.20084,14.89359-33.20084,33.20081c0,18.30725,14.89404,33.20126,33.20084,33.20126h20.58908
	c6.47165,0,11.73688,5.26526,11.73688,11.73688v63.65732H361.58627z"/>
<linearGradient id="SVGID_11_" gradientUnits="userSpaceOnUse" x1="318.896" y1="420.86157" x2="318.896" y2="218.19318">
	<stop  offset="0.01031" style="stop-color:#111"/>
	<stop  offset="0.97938" style="stop-color:#333"/>
</linearGradient>
<path class="st11" d="M221.1425,218.19318h54.06877v30.25706c0,22.04994,17.875,39.92491,39.92493,39.92491h0.00006
	c22.04993,0,39.92493-17.87497,39.92493-39.92491V225.3546c0-3.95514,3.20627-7.16142,7.16144-7.16142h54.42685v52.45746
	c0,4.64731-3.7674,8.41467-8.4147,8.41467H388.8989c-20.86337,0-37.77649,16.91312-37.77649,37.77649v0.00006
	c0,20.8634,16.91312,37.77649,37.77649,37.77649h20.58914c3.95514,0,7.16144,3.2063,7.16144,7.16144v59.08179h-55.06342
	c-4.50449,0-8.1561-3.65161-8.1561-8.1561v-26.91504c0-20.97327-17.00217-37.97543-37.9754-37.97543h-0.00006
	c-20.97327,0-37.97543,17.00217-37.97543,37.97543v35.07114H221.1425V218.19318z"/>
</svg>
